<?xml version="1.0" encoding="UTF-8"?>
<svg id="Layer_2" data-name="Layer 2" xmlns="http://www.w3.org/2000/svg" viewBox="0 0 300 300">
  <defs>
    <style>
      .cls-1 {
        fill: #00784a;
      }

      .cls-2 {
        fill: #c8ffc8;
      }
    </style>
  </defs>
  <g id="Layer_1-2" data-name="Layer 1">
    <g>
      <rect class="cls-1" x="0" y="0" width="300" height="300" rx="150" ry="150"/>
      <path class="cls-2" d="M244.01,226.97c-.93-1.49-1.71-3.36-3.24-4.19-2.99-1.63-4.64-4.15-6.56-6.36-1.96-2.28-3.85-4.62-5.9-6.86-.52-.57-1.02-1.17-1.54-1.74-.78-.86-1.77-1.63-2.31-2.59-1.33-2.38-3.08-4.53-5.29-6.32-1.2-.97-1.98-2.02-2.6-3.27-.02-.04-.03-.08-.03-.13-.05-.77,1.76-2,1.49-2.67-.02-.06-.04-.12-.1-.17-1.59-1.62-6.4-2.37-7.92-4.03-1.63-1.78-3.04-3.71-4.6-5.54-.53-.62-1.26-1.11-1.81-1.72-.61-.68-1.08-1.45-1.67-2.15-.78-.93-1.43-2.07-2.49-2.69-1.16-.69-1.96-1.45-2.21-2.55-.22-.93-.76-1.51-1.7-1.98-.44-.22-1.07-.7-1.18-.99,0-.03-.01-.06,0-.09.16-.5.8-.97,1.37-1.26.86-.43,1.85-.65,2.75-1.02,1.43-.61,2.82-1.29,4.24-1.91,1.18-.51,2.52-.82,3.55-1.49,1.88-1.22,3.57-2.65,5.36-3.98.21-.16.47-.28.74-.37,2.41-.84,4.15-2.3,5.56-4.11.55-.71,1.26-1.33,1.89-1.99.87-.91,2.15-1.72,2.5-2.75.79-2.32,3.05-3.8,4.13-5.91,1.33-2.59,2.92-5.1,4.02-7.76.72-1.72.34-3.68,1.75-5.35.71-.84.61-2.17.87-3.28,0-.01,0-.02,0-.04,0,0,0,0,0,0-.07-.32-.14-.64-.2-.96-.43-2.31-.53-4.63.16-7.11,0,0,0,0-.01-.01,0,0,0-.01,0-.02-2.12-2.35-3.04-3.79-3.28-4.71-.56-2.28,3.29-1.17,3.34-2.96.01-.5,0-.98-.11-1.43-.16-.75-.52-1.44-1.26-2.05-.23-.19-.42-.5-.49-.8-.02-.09-.03-.18-.02-.27.08-.89-.02-1.75-.21-2.6-.31-1.42-.85-2.8-1.15-4.23-.38-1.79-.93-3.32-2.63-4.49-.25-.17-.46-.53-.53-.86-.02-.1-.02-.21,0-.29.12-.59.1-1.15,0-1.67-.31-1.56-1.46-2.85-2.55-4.12-1.3-1.53-3.23-2.71-4.32-4.32-1.56-2.3-4.12-3.71-6.08-5.62-.04,0-.09,0-.11-.06.03-.07-.07-.11-.07-.11-.13.04-3.08,2.11-3.16,2.07-1.74-.73-.7-3.42-2.43-4.24,0-.04,0-.06,0-.06,0,0-.01,0-.02-.01,0-.02,0-.03,0-.03-.19-.12-.37-.24-.56-.42,0-.04.03-.05.03-.05,0,0-.02-.02-.02-.03,0,0,.02-.01.02-.01-.31-.35-.61-.69-.92-1.11,0-.05.03-.07.03-.07,0,0-.02,0-.03-.01,0-.02.02-.02.02-.02-.39-.19-.77-.38-1.17-.65,0-.04.02-.06.02-.06,0,0-.02,0-.03,0,0-.02.02-.03.02-.03-1.43-.44-2.86-.88-4.34-1.39-.01-.02,0-.02-.01-.03,0,0,0,0,0,0,0,0,0,0,0,0,0-.02,0-.03,0-.03-.18-.04-.36-.07-.57-.17,0-.01,0-.02,0-.02,0,0,0,0,0,0,0,0,0,0,0,0,0-.02,0-.03,0-.03-2.42-.6-4.82-1.23-7.25-1.77-1.05-.23-2.17-.23-3.24-.42-.57-.1-1.1-.39-1.68-.67,0-.02,0-.02,0-.03,0,0,0-.01,0-.01,0,0,0,0-.01,0,0-.02,0-.03,0-.03-.37-.11-.75-.22-1.16-.4,0-.02,0-.02-.01-.03,0,0,0,0,0,0,0,0,0,0,0,0,0-.02,0-.04,0-.04-.26-.04-.53-.08-.84-.18-.05-.06-.03-.07-.03-.07-.63-.02-1.27-.05-2.05-.15-.14-.08-.27-.08-.27-.08-3-.61-6.04-.87-9.13-.76-.41.01-.83-.34-1.36-.62-.11-.09-.23-.09-.23-.09-2.71,0-5.41.02-8.12.01-1.22,0-2.45-.05-3.8-.17-.14-.08-.26-.09-.26-.09-2.25.15-4.49.42-6.74.43-2.05,0-4.1-.27-6.15-.42-.95-.07-1.91-.15-2.98-.23-.89.19-1.65.53-2.42.55-.83.02-1.67-.25-2.62-.48-.13-.08-.25-.09-.25-.09-2,.17-4.01.47-6.01.47-2.2,0-4.39-.3-6.7-.48-.12,0-.12-.03-.12-.03-.03.08-.06.15-.16.25,0,.01,0,.02.01.03,0,0,0,0,0,0,.46.94.7,1.56.79,1.95.34,1.64-2.23-1.07-2.86-1.9,0-.03,0-.04,0-.04,0,0,0,0-.01,0,0-.03,0-.04,0-.04-3.53.17-7.07.44-10.6.48-1.94.02-3.88-.35-5.83-.51-.64-.05-1.3.02-2.06.05-1.06.14-2.01.35-2.96.38-1.74.05-3.49-.02-5.23-.01-2.27,0-4.55.03-7.02-.03-.42-.06-.65-.05-.87-.03-.34.14-.69.43-1.02.41-1.81-.08-3.63-.21-5.44-.38-1.42-.13-2.78-.21-3.94.7-.27.21-.67.33-1.03.41-1.35.3-1.66.8-1.49,1.98.23,1.6.32,3.22.44,4.84.01.16-.19.34-.43.59-.13.12-.12.16-.11.21,0,0,0,.01,0,.02,0,0,0,.01,0,.02.09.25.24.5.26.76.11,2.46.19,4.92.31,7.38.03.56.18,1.11.28,1.78-.06.78.09,1.54-.22,2.12-.49.93-4.14,5.64-3.66,6.7,0,0,0,0,0,0,0,.01,0,.03,0,.04.37.8,3.16.89,3.24,1.79,0,.13,0,.18.01.2.03.22.13-.52.16-.67,0,.04,0,.11-.02.21-.04.12-.04.17-.03.21,0,.04,0,.06.02.09.1.27.29.55.36.82.02.08.03.17.01.24-.45,2.25-.76,4.48-.24,6.73.07.33.17.66.28.99.18.58-.07,1.27-.04,1.9.09,1.77-.32,3.47-.7,5.19-.19.84.2,1.76.21,2.64.02,1.52-.05,3.04-.18,4.71-.08.26-.07.37-.05.47,0,0,0,0,0,0,0,.01,0,.02,0,.04.6.24.8.58.84.96.04.39-.08.82-.07,1.22.03.83.03,1.66.05,2.59-.02.85.05,1.61-.07,2.34-.22,1.4-.53,2.78-.83,4.17-.03.14-.19.26-.42.52-.07.4-.17.81-.1,1.09.02.1.06.19.12.26.56.54.81,1.07.88,1.6.1.91-.32,1.82-.69,2.77-.21.54-.34,1.27-.2,1.83.04.2.11.37.23.51.36.45.61.87.73,1.3.19.69.06,1.38-.41,2.15-.25.41-.25.93-.37,1.41,0,.69.09,1.37.22,2.05.18.99.45,1.98.63,2.98.18,1.01.27,2.04.11,3.11-.38,2.47-.89,5.01-.27,7.57.09.38.2.75.34,1.13.06.16.1.31.14.48.24,1.16-.07,2.46-.08,3.68,0,.09-.17.18-.4.39-.25,3.05-.85,6.01-.29,8.95.08.42.18.84.31,1.26.11.37,0,.87-.2,1.21-.78,1.25-.99,2.56-.77,3.93,0,0,0,0,0,0,0,.01,0,.02,0,.03.14.12.22.26.24.41.11,1.08-2.63,2.68-2.72,3.83,0,.09,0,.18.03.27.25,1.17,2.93,1.93,3.23,3.09.02.08.03.15.02.23-.03.48.03,1-.16,1.44-.35.79-.37,1.53-.22,2.28.09.45.23.91.41,1.39.13.36.24.73.33,1.1.26,1.13.31,2.33.11,3.43-.19,1.02-.61,1.94-.41,2.93.06.33.19.67.43,1.03.02.03.02.07.03.11-.03.4-.74,1.12-1.2,1.73,0,.65-.05,1.33.12,1.87.06.2.14.38.27.53.33.4.51.77.58,1.13.11.61-.1,1.21-.43,1.88-.35.7-.75,1.59-.63,2.27.02.1.04.2.08.29.21.46.36.92.46,1.37.3,1.36.17,2.69-.3,4.06.11,1.06.31,2.12.29,3.17-.02.87-.1,1.76.09,2.59.11.51.32,1,.71,1.45.33.39,1.1.58,1.71.7.73.14,1.51.13,2.27.13.76,0,1.52-.07,2.28-.09,1.66-.05,3.32-.08,4.98-.15,1.14-.05,1.1-1.2,2.17-1.48,1.66-.44,4.43.93,6.02,1.33,3.08.76,6.13.45,9.16-.28.56-.13,1.23.03,1.98.17,1.51.26,2.89.41,4.26.56.67-.15,1.48-.14,1.99-.4,1.17-.61,5.49,3.13,4.74-.41.12.02.17,0,.17,0,0-.48-.09-1.08-.22-1.74-.22-1.09-.56-2.33-.77-3.4-.33-1.7-.31-2.97,1.08-2.49,2.34.8,2.94.65,2.8.08-.17-.86-2.22-2.78-2.36-3.73,0-.05,0-.09,0-.14,0-.56-.16-.95-.15-1.34.06-2.08.16-4.15.24-6.22,0-.26-.04-.52-.09-.78-.13-.75-.39-1.5-.57-2.25-.23-.99-.33-1.99.16-3.05.38-.82.17-1.84.23-2.87,0-.1.03-.11.03-.11,0-.01,0-.02-.01-.03,0,0,0,0,0,0-.1-.34-.21-.68-.31-1.1,0-.08.03-.08.03-.08,0-.01,0-.02,0-.04h0c-.03-.13-.07-.27-.09-.41-.02-.15-.04-.32-.03-.52.09-.11.1-.22.1-.22.09-3.37.18-6.73.27-10.21,0,0,0,0,0-.01,0,0,0-.02,0-.02-.45-.67-.75-1.32-.89-1.97-.22-1.08,0-2.14.68-3.25.29-.47.03-1.17.05-1.76.03-.78.09-1.56.29-2.44.45-.52.75-.94,1.05-1.36,1.35-.1,2.7-.29,4.05-.29,1.29,0,2.57.19,4.07.37.84,0,1.47-.08,2.1-.15,0,0,0,.02.12.05.59.07,1.06.1,1.53.14.52-.09,1.05-.27,1.57-.26,1.36.03,2.73.28,4.08.2,1.6-.09,3.17-.47,4.76-.63.73-.07,1.5.08,2.28.21,0,.03,0,.05,0,.05h.02s0,.04,0,.04c2.09-.01,4.18-.05,6.26-.04,1.69.01,2.6.94,3.22,2.21-.03.08-.01.11-.01.11,0,0,0,0,0,0,0,.02,0,.03,0,.03.14.07.28.15.43.36.07.2.14.24.23.24.21.18.42.36.64.62,0,.05-.01.06-.01.06,0,0,0,.02.02.03,0,0,0,0,0,0,.16.29.32.57.41,1,.47.63,1.03,1.11,1.55,1.62.58.56,1.15,1.13,1.68,1.72,1.49,1.69,3.35,3.19,3.83,5.4.03.12.33.18.43.3,1.01,1.18,2.02,2.35,3,3.54,1.6,1.95,3.17,3.92,4.76,5.88.69.85,1.37,1.7,2.05,2.55,1.05,1.29,5.84,2.49,6.9,3.78.03.04.05.08.06.12.08.63-2.23,1.29-2.1,1.94,0,.05.02.1.05.15.69,1,.95,2.51,1.95,3.01,2.69,1.35,3.13,3.88,4.77,5.75.88,1.01,1.27,2.3,2.58,3.13.69.44,1.07,1.22,1.59,1.85.27.33.49.68.76,1.01.79.94,1.6,1.87,2.4,2.8.43.68.86,1.36,1.27,2.12-.01.06-.04.07-.04.07,0,0,.02.02.02.02,0,.01-.02.01-.02.01.11.1.22.21.35.38,0,.04-.01.05-.01.05,0,0,.01,0,.02,0,0,.02-.01.03-.01.03,1.45.59,2.93.55,4.45.24,2.23-.46,4.44-.18,6.76.24,1.23-.78-.4-2.77,1.02-2.47,1.81.39,6.49,2.31,8.39,2.33,1.32.02,2.64-.07,3.96-.12,1.15-.04,2.3-.13,3.45-.15,1-.02,2.01-.02,3.01.05.57.04.8.3.88.66.11.56-.11,1.33,0,1.85.17,1.03,1.45,1.21,8.34-2.56.39-.21,1.05.13,1.66.31,1.63.27,3.19.59,4.74.56,1.54-.03,2.7-.86,2.6-1.6,0-.11-.04-.22-.11-.32Z"/>
    </g>
  </g>
</svg>