<?xml version="1.0" encoding="UTF-8"?>
<svg id="Layer_2" data-name="Layer 2" xmlns="http://www.w3.org/2000/svg" viewBox="0 0 300 300">
  <defs>
    <style>
      .cls-1 {
        fill: #00784a;
      }

      .cls-2 {
        fill: #c8ffc8;
      }
    </style>
  </defs>
  <g id="Layer_1-2" data-name="Layer 1">
    <g>
      <rect class="cls-2" x="0" y="0" width="300" height="300" rx="150" ry="150"/>
      <path class="cls-1" d="M239.02,235.75c-.87-1.65-1.61-3.74-3.04-4.67-2.82-1.81-4.37-4.62-6.17-7.09-1.85-2.53-3.62-5.15-5.55-7.65-.49-.64-.96-1.3-1.45-1.94-.73-.96-1.67-1.82-2.17-2.88-1.26-2.65-2.9-5.04-4.98-7.04-1.13-1.09-1.86-2.24-2.44-3.64-.02-.05-.03-.09-.03-.14-.04-.86,1.66-2.23,1.4-2.98-.02-.07-.04-.13-.09-.19-1.5-1.8-6.02-2.64-7.45-4.49-1.54-1.98-2.86-4.13-4.33-6.17-.5-.69-1.19-1.23-1.7-1.91-.57-.76-1.02-1.62-1.57-2.4-.74-1.04-1.35-2.3-2.34-3-1.09-.77-1.84-1.61-2.08-2.84-.2-1.04-.72-1.68-1.6-2.21-.42-.25-1.01-.78-1.11-1.11,0-.04-.01-.07,0-.1.15-.55.75-1.08,1.29-1.4.81-.48,1.75-.72,2.59-1.14,1.35-.68,2.65-1.44,3.99-2.13,1.11-.57,2.37-.92,3.34-1.66,1.77-1.36,3.36-2.95,5.04-4.43.2-.18.45-.32.69-.42,2.27-.93,3.91-2.56,5.23-4.58.52-.79,1.19-1.48,1.78-2.22.81-1.01,2.02-1.91,2.36-3.07.74-2.58,2.87-4.23,3.89-6.59,1.25-2.89,2.74-5.69,3.78-8.65.67-1.92.32-4.1,1.65-5.97.67-.94.57-2.42.82-3.65,0-.01,0-.03,0-.04,0,0,0,0,0,0-.07-.36-.13-.71-.19-1.07-.41-2.57-.5-5.16.15-7.92,0,0,0-.01-.01-.02,0,0,0-.02,0-.03-1.99-2.62-2.86-4.23-3.09-5.24-.53-2.54,3.09-1.3,3.14-3.3.01-.56,0-1.09-.1-1.59-.15-.84-.49-1.6-1.19-2.28-.22-.21-.4-.56-.46-.89-.02-.1-.03-.2-.02-.3.08-.99-.02-1.95-.2-2.9-.29-1.58-.8-3.12-1.09-4.71-.35-2-.87-3.69-2.48-5-.24-.19-.43-.6-.49-.96-.02-.12-.02-.23,0-.33.11-.66.1-1.28,0-1.86-.29-1.74-1.38-3.18-2.4-4.59-1.23-1.7-3.04-3.02-4.07-4.81-1.47-2.56-3.88-4.13-5.72-6.26-.04,0-.08,0-.1-.06.02-.08-.07-.12-.07-.12-.12.05-2.9,2.35-2.98,2.31-1.63-.81-.66-3.81-2.29-4.73,0-.04,0-.06,0-.06,0,0-.01,0-.02-.01,0-.02,0-.03,0-.03-.17-.13-.35-.26-.52-.47,0-.04.03-.06.03-.06,0,0-.01-.02-.02-.03,0,0,.01-.01.01-.01-.29-.39-.58-.77-.86-1.24,0-.06.03-.08.03-.08,0,0-.02,0-.02-.01,0-.02.02-.03.02-.03-.36-.21-.73-.43-1.1-.72,0-.05.02-.07.02-.07,0,0-.02,0-.02,0,0-.02.02-.03.02-.03-1.35-.49-2.7-.98-4.08-1.55-.01-.02,0-.03-.01-.04,0,0,0-.01,0-.01,0,0,0,0,0,0,0-.02,0-.04,0-.04-.17-.04-.33-.08-.54-.19,0-.01,0-.02,0-.03,0,0,0,0,0,0,0,0,0,0,0,0,0-.03,0-.04,0-.04-2.27-.67-4.54-1.37-6.83-1.98-.99-.26-2.04-.25-3.05-.47-.54-.11-1.03-.43-1.58-.74,0-.02,0-.03,0-.04,0,0,0-.01,0-.01,0,0,0,0-.01,0,0-.02,0-.04,0-.04-.35-.12-.7-.25-1.09-.45,0-.02,0-.03,0-.04,0,0,0,0,0,0,0,0,0,0,0,0,0-.03,0-.04,0-.04-.25-.04-.5-.08-.8-.2-.05-.07-.02-.07-.02-.07-.6-.03-1.19-.05-1.93-.17-.13-.09-.25-.09-.25-.09-2.82-.68-5.68-.97-8.59-.85-.38.02-.79-.38-1.28-.69-.1-.1-.22-.1-.22-.1-2.55,0-5.09.02-7.64.01-1.15,0-2.3-.06-3.58-.18-.13-.09-.24-.1-.24-.1-2.11.17-4.23.47-6.34.48-1.93,0-3.86-.3-5.79-.47-.9-.08-1.79-.16-2.8-.26-.84.21-1.55.58-2.28.61-.78.03-1.57-.28-2.47-.53-.12-.09-.23-.1-.23-.1-1.89.19-3.77.53-5.66.52-2.07,0-4.13-.33-6.31-.53-.11-.01-.12-.04-.12-.04-.03.08-.06.17-.15.28,0,.01,0,.02.01.03,0,0,0,0,0,0,.43,1.04.66,1.74.74,2.18.32,1.83-2.09-1.19-2.69-2.12,0-.03,0-.05,0-.05,0,0,0,0-.01,0,0-.03,0-.04,0-.04-3.33.19-6.65.49-9.98.54-1.83.03-3.65-.39-5.49-.57-.6-.06-1.22.03-1.94.06-1,.16-1.89.39-2.79.42-1.64.06-3.28-.02-4.92-.01-2.14,0-4.28.04-6.61-.03-.4-.07-.61-.05-.82-.03-.32.16-.65.48-.96.46-1.71-.09-3.42-.23-5.12-.42-1.33-.15-2.61-.23-3.7.78-.25.23-.63.37-.97.46-1.27.33-1.56.89-1.4,2.21.22,1.79.3,3.59.42,5.39.01.18-.18.38-.41.66-.12.14-.11.18-.11.23,0,0,0,.02,0,.02,0,0,0,.01,0,.02.08.28.22.56.24.84.11,2.74.18,5.48.29,8.22.03.62.17,1.24.26,1.98-.05.87.08,1.71-.2,2.36-.46,1.04-3.9,6.29-3.44,7.46,0,0,0,0,0,0,0,.01,0,.03,0,.04.35.89,2.97.99,3.05,1.99,0,.14,0,.2.01.22.02.25.12-.58.15-.75,0,.05,0,.12-.01.23-.04.14-.04.19-.03.24,0,.04,0,.07.02.09.09.3.27.62.34.91.02.09.02.18,0,.27-.43,2.51-.72,4.99-.23,7.5.07.37.16.73.26,1.1.17.65-.07,1.41-.03,2.12.09,1.97-.3,3.87-.66,5.79-.18.94.19,1.96.2,2.95.02,1.69-.05,3.39-.17,5.25-.08.29-.06.41-.05.53,0,0,0,0,0,0,0,.01,0,.03,0,.04.57.26.75.65.79,1.07.03.44-.07.92-.06,1.36.03.92.03,1.85.05,2.88-.02.95.04,1.79-.06,2.61-.21,1.56-.5,3.1-.78,4.65-.03.16-.18.29-.39.57-.07.45-.16.9-.09,1.21.02.11.05.21.12.29.53.6.76,1.19.83,1.79.1,1.01-.3,2.03-.65,3.08-.2.6-.32,1.42-.19,2.04.04.22.11.41.21.57.34.5.57.97.69,1.45.18.77.05,1.54-.38,2.39-.24.46-.24,1.04-.35,1.57,0,.77.09,1.53.21,2.28.17,1.11.42,2.2.59,3.32.17,1.12.25,2.27.1,3.46-.36,2.76-.84,5.58-.26,8.43.08.42.19.84.32,1.26.05.17.1.35.13.53.22,1.29-.06,2.74-.08,4.1,0,.1-.16.2-.38.44-.24,3.4-.8,6.7-.28,9.97.07.47.17.93.29,1.4.1.42,0,.97-.19,1.35-.73,1.39-.94,2.85-.73,4.38,0,0,0,0,0,0,0,.01,0,.02,0,.03.14.14.2.29.23.45.1,1.21-2.48,2.98-2.56,4.27,0,.1,0,.2.03.3.23,1.3,2.76,2.15,3.04,3.44.02.08.02.17.02.26-.03.54.03,1.12-.15,1.6-.33.88-.35,1.7-.21,2.54.08.5.22,1.02.39,1.55.12.4.23.81.31,1.23.24,1.26.29,2.6.1,3.83-.18,1.14-.58,2.17-.39,3.27.06.37.18.75.4,1.15.02.04.02.08.03.13-.03.44-.7,1.25-1.13,1.93,0,.72-.05,1.48.12,2.09.06.22.13.42.25.59.31.44.48.85.54,1.26.1.68-.09,1.35-.4,2.1-.33.78-.71,1.78-.59,2.53.01.11.04.22.08.32.19.52.34,1.02.43,1.53.28,1.51.16,3-.28,4.52.1,1.18.29,2.36.27,3.53-.02.97-.1,1.96.09,2.89.11.57.3,1.11.67,1.62.31.43,1.03.65,1.61.78.69.16,1.42.14,2.14.15.71,0,1.43-.07,2.14-.1,1.56-.06,3.13-.09,4.69-.17,1.07-.06,1.04-1.34,2.04-1.65,1.56-.49,4.17,1.04,5.66,1.48,2.9.85,5.77.5,8.62-.31.53-.15,1.15.03,1.86.19,1.42.29,2.72.46,4.01.62.63-.17,1.39-.16,1.87-.45,1.1-.68,5.17,3.48,4.46-.45.12.02.16,0,.16,0,0-.53-.08-1.21-.21-1.94-.21-1.21-.53-2.6-.73-3.79-.31-1.9-.29-3.3,1.02-2.77,2.2.89,2.77.72,2.64.09-.16-.96-2.09-3.1-2.22-4.16,0-.05,0-.11,0-.15,0-.63-.15-1.06-.14-1.49.05-2.31.15-4.62.23-6.93,0-.29-.04-.58-.09-.87-.12-.84-.36-1.67-.53-2.51-.22-1.1-.31-2.22.16-3.4.36-.92.16-2.05.22-3.2,0-.12.03-.12.03-.12,0-.01,0-.03,0-.04,0,0,0,0,0,0-.1-.38-.2-.76-.29-1.23,0-.09.02-.09.02-.09,0-.01,0-.03,0-.04h0c-.03-.15-.06-.3-.09-.46-.02-.17-.04-.36-.03-.57.09-.12.1-.25.1-.25.09-3.75.17-7.5.26-11.38,0,0,0,0,0-.01,0,0,0-.02,0-.03-.42-.74-.7-1.47-.83-2.19-.21-1.2,0-2.39.64-3.62.27-.52.03-1.3.05-1.97.03-.87.09-1.74.27-2.72.42-.58.71-1.05.99-1.52,1.27-.11,2.54-.32,3.81-.32,1.21,0,2.42.21,3.83.42.79,0,1.39-.08,1.98-.17,0,0,0,.02.12.05.56.08,1,.12,1.44.16.49-.1.99-.3,1.47-.28,1.28.04,2.57.31,3.84.23,1.5-.1,2.98-.52,4.48-.7.69-.08,1.41.09,2.15.23,0,.04,0,.06,0,.06h.01s0,.04,0,.04c1.97-.02,3.93-.06,5.9-.04,1.59.02,2.45,1.04,3.03,2.46-.03.09-.01.13-.01.13,0,0,0,0,0,0,0,.03,0,.04,0,.04.13.08.26.16.41.4.06.23.13.27.22.27.2.2.4.4.6.7,0,.05-.01.07-.01.07,0,.01,0,.02.01.03,0,0,0,.01,0,.01.15.32.3.64.38,1.12.44.7.97,1.24,1.46,1.8.54.62,1.08,1.25,1.58,1.92,1.4,1.88,3.15,3.55,3.6,6.01.02.13.31.2.41.34.95,1.31,1.9,2.62,2.83,3.95,1.5,2.17,2.99,4.36,4.48,6.55.65.95,1.29,1.9,1.93,2.84.98,1.44,5.5,2.77,6.49,4.21.03.04.05.09.06.13.08.7-2.1,1.43-1.97,2.16,0,.06.02.11.05.17.65,1.12.89,2.8,1.83,3.36,2.54,1.51,2.95,4.33,4.49,6.41.83,1.12,1.19,2.56,2.43,3.49.65.49,1.01,1.36,1.49,2.06.25.37.46.76.72,1.12.75,1.05,1.51,2.08,2.26,3.12.4.76.81,1.51,1.2,2.36-.01.07-.04.08-.04.08,0,0,.02.02.02.03,0,.01-.02.01-.02.01.11.12.21.23.33.43,0,.04-.01.06-.01.06,0,0,.01,0,.02,0,0,.02-.01.03-.01.03,1.36.65,2.76.61,4.19.26,2.1-.51,4.18-.21,6.36.27,1.15-.87-.37-3.09.96-2.75,1.7.43,6.11,2.57,7.9,2.6,1.24.02,2.49-.08,3.73-.14,1.08-.05,2.16-.14,3.24-.16.94-.02,1.89-.02,2.84.05.54.04.75.34.83.74.1.62-.1,1.48,0,2.07.16,1.14,1.37,1.35,7.85-2.85.37-.24.99.14,1.56.34,1.53.3,3,.66,4.46.62,1.45-.04,2.54-.96,2.45-1.79,0-.12-.04-.24-.1-.36Z"/>
    </g>
  </g>
</svg>